<svg width="202" height="202" viewBox="0 0 202 202" fill="none" xmlns="http://www.w3.org/2000/svg">
<g id="Group 23">
<circle id="Oval" opacity="0.202683" cx="101" cy="101" r="101" transform="matrix(-1 0 0 1 202 0)" fill="url(#paint0_linear_1_10197)"/>
<g id="designer_(1) 2">
<g id="designer_(1)">
<path id="Path" d="M164.845 138.137C164.845 138.137 187.439 79.1713 175.733 70.1789C164.028 61.1865 114.935 64.8178 112.246 68.0303C109.556 71.2429 93.7202 142.221 93.7202 142.221L164.845 138.137Z" fill="#231F20"/>
<path id="Shape" fill-rule="evenodd" clip-rule="evenodd" d="M93.4255 142.461C93.4924 142.535 93.5869 142.577 93.6862 142.578L93.7068 142.592L164.865 138.473C165.001 138.467 165.12 138.381 165.167 138.253L165.171 138.244C165.34 137.802 170.939 123.153 175.013 107.617C180.605 86.3926 180.921 73.7347 175.947 69.918C168.797 64.4334 148.837 64.097 140.604 64.2069C126.579 64.3922 113.474 66.0465 111.985 67.8244C109.268 71.0644 94.0018 139.262 93.3569 142.166C93.3305 142.27 93.3561 142.38 93.4255 142.461ZM140.618 64.8727H143.197C159.15 64.8727 170.862 66.884 175.507 70.4466C186.54 78.9104 166.032 133.956 164.584 137.793L94.0979 141.857C99.6144 117.214 110.428 70.728 112.486 68.25C113.687 66.8428 126.209 65.0649 140.618 64.8727Z" fill="#231F20"/>
<path id="Path_2" d="M73.1021 87.1888L62.9199 121.38C62.9199 121.38 83.9224 124.092 83.9224 123.316C83.9224 122.541 88.0392 85.6924 88.0392 85.6924L73.1021 87.1888Z" fill="white"/>
<path id="Shape_2" fill-rule="evenodd" clip-rule="evenodd" d="M62.8788 121.703C69.253 122.541 79.3185 123.762 82.8658 123.762C83.2942 123.802 83.7259 123.743 84.1283 123.591C84.2101 123.514 84.2592 123.408 84.2655 123.296C84.2655 122.602 86.962 98.4053 88.3823 85.7061C88.3968 85.6044 88.361 85.502 88.2862 85.4315C88.2153 85.357 88.1142 85.3191 88.0118 85.3286L73.0679 86.825C72.9282 86.8393 72.8114 86.9372 72.7728 87.0721L62.5906 121.264C62.564 121.361 62.5803 121.464 62.6355 121.549C62.6906 121.633 62.7793 121.689 62.8788 121.703ZM83.5657 123.097C81.9738 123.323 70.6389 122.026 63.3385 121.092L73.3423 87.5115L87.6276 86.0768C87.6001 86.323 87.5624 86.661 87.5158 87.0797C86.7801 93.678 83.8108 120.308 83.5657 123.097Z" fill="#231F20"/>
<path id="Path_3" d="M53.8011 78.6973C53.8903 78.7934 57.5062 77.8255 59.3725 80.0701C61.2388 82.3148 58.8168 84.3192 52.9229 83.1591C47.029 81.999 53.8011 78.6973 53.8011 78.6973Z" fill="white"/>
<path id="Shape_3" fill-rule="evenodd" clip-rule="evenodd" d="M52.8542 83.5027C53.9 83.7158 54.9637 83.8284 56.031 83.8391C58.055 83.8391 59.5302 83.3174 60.0997 82.4181C60.5388 81.663 60.381 80.7638 59.64 79.8852C57.991 77.9083 55.097 78.2602 54.1163 78.3794C54.1094 78.3802 54.1027 78.3811 54.0961 78.3819H53.8696C53.7984 78.3578 53.7213 78.3578 53.6501 78.3819C53.0326 78.6908 49.9724 80.2627 50.1714 81.8141C50.2743 82.6172 51.1526 83.1664 52.8542 83.5027ZM50.8712 81.6905C50.7752 80.9286 52.5385 79.7204 53.8765 79.034C53.9588 79.034 54.0549 79.034 54.1853 79.0065C55.139 78.883 57.6845 78.5672 59.098 80.2558C59.5806 80.686 59.7376 81.375 59.4891 81.9719C58.9813 82.83 56.9778 83.5576 52.9914 82.7751C51.228 82.425 50.8712 81.9445 50.8712 81.6905Z" fill="#231F20"/>
<path id="Path_4" d="M44.7372 71.5244C44.7372 71.5244 43.9962 70.6732 44.4628 70.076C44.6757 69.83 44.9942 69.7019 45.3181 69.7318C45.642 69.7618 45.9315 69.9462 46.0958 70.227C46.0958 70.227 44.9294 70.6458 44.7372 71.5244Z" fill="white"/>
<path id="Shape_4" fill-rule="evenodd" clip-rule="evenodd" d="M44.47 71.7574C44.5385 71.8327 44.6359 71.8752 44.7376 71.8741L44.8268 71.8673C44.9554 71.8335 45.0537 71.7298 45.0807 71.5996C45.2042 71.0435 45.9383 70.6591 46.2128 70.563C46.321 70.5239 46.4031 70.4341 46.4323 70.3228C46.466 70.2106 46.4401 70.0889 46.3637 70.0001C46.0866 69.6151 45.6441 69.3836 45.1699 69.3755C44.7847 69.376 44.4219 69.5562 44.1887 69.8629C43.6741 70.5081 44.1269 71.3593 44.47 71.7574ZM44.7513 70.2953C44.8562 70.1631 45.0149 70.085 45.1836 70.0825L45.1904 70.11C45.293 70.0953 45.3975 70.1096 45.4923 70.1512C45.2091 70.315 44.958 70.529 44.7513 70.7827C44.672 70.6299 44.672 70.4481 44.7513 70.2953Z" fill="#231F20"/>
<path id="Path_5" d="M46.3568 70.1924C45.5174 70.2606 44.8296 70.8867 44.6826 71.7163L59.4001 90.8748C59.587 88.9853 61.0408 87.4685 62.92 87.2024L46.3568 70.1924Z" fill="white"/>
<path id="Shape_5" fill-rule="evenodd" clip-rule="evenodd" d="M59.1189 91.0877C59.1843 91.1732 59.2856 91.2239 59.3933 91.2249L59.4962 91.2112C59.6371 91.1715 59.7384 91.0483 59.7501 90.9023C59.9243 89.1728 61.2603 87.788 62.9818 87.5525C63.111 87.5302 63.217 87.4374 63.2562 87.3122C63.2999 87.1873 63.2678 87.0484 63.1739 86.9553L46.6107 69.9453C46.5443 69.876 46.4528 69.8364 46.3568 69.8354C45.3617 69.9134 44.5386 70.6416 44.3396 71.6202C44.3112 71.7272 44.334 71.8413 44.4013 71.9291L59.1189 91.0877ZM59.2149 90.0511L45.0738 71.6477C45.2226 71.0975 45.6684 70.678 46.2265 70.5631L62.227 86.9965C60.7605 87.4215 59.6198 88.5782 59.2149 90.0511Z" fill="#231F20"/>
<path id="Path_6" d="M59.4001 90.875L64.4225 93.4835L65.0469 92.9L62.9199 87.2026C62.9199 87.2026 59.009 86.8113 59.4001 90.875Z" fill="white"/>
<path id="Shape_6" fill-rule="evenodd" clip-rule="evenodd" d="M64.258 93.7925C64.3084 93.8204 64.3651 93.8346 64.4227 93.8337C64.5109 93.8341 64.5962 93.8024 64.6628 93.7445L65.2872 93.161C65.3932 93.0635 65.4286 92.9109 65.3764 92.7766L63.2563 87.0792C63.2091 86.9495 63.0916 86.8587 62.9544 86.8458C61.855 86.7542 60.7649 87.1078 59.9285 87.8274C59.1763 88.6617 58.8499 89.7959 59.0434 90.9026C59.0544 91.0234 59.1271 91.1299 59.2355 91.1841L64.258 93.7925ZM64.3609 93.0512L59.7364 90.6486C59.614 89.812 59.8648 88.9638 60.4225 88.3285C61.0518 87.801 61.8524 87.5225 62.673 87.5459L64.6354 92.8041L64.3609 93.0512Z" fill="#231F20"/>
<path id="Path_7" d="M64.4224 93.4834L65.3829 94.513L65.8358 93.9982L65.0467 92.8999L64.4224 93.4834Z" fill="white"/>
<path id="Shape_7" fill-rule="evenodd" clip-rule="evenodd" d="M65.1294 94.7535C65.1926 94.8282 65.2856 94.8709 65.3833 94.8702H65.4107C65.5118 94.8703 65.6075 94.825 65.6715 94.7467L66.1243 94.2318C66.2276 94.1036 66.2276 93.9207 66.1243 93.7925L65.3353 92.6942C65.2758 92.6121 65.1842 92.5593 65.0834 92.5488C64.9826 92.5383 64.8821 92.5712 64.8069 92.6393L64.1826 93.2228C64.1131 93.2868 64.0712 93.3755 64.0659 93.4699C64.0653 93.5635 64.0996 93.654 64.162 93.7239L65.1294 94.7535ZM65.3764 93.9847L64.9236 93.4973L64.9853 93.4424L65.3764 93.9847Z" fill="#231F20"/>
<path id="Path_8" d="M54.7344 92.3785C55.544 90.7379 57.575 87.2576 58.0416 85.7474C59.3315 81.6288 51.7772 77.771 49.3346 77.771C46.8919 77.771 41.7871 86.3103 41.7871 90.8751C41.7871 95.44 58.7002 130.394 58.7002 130.394L74.9273 122.966L54.7344 92.3785Z" fill="white"/>
<path id="Shape_8" fill-rule="evenodd" clip-rule="evenodd" d="M58.405 130.551C58.4631 130.673 58.5859 130.75 58.7206 130.751C58.78 130.759 58.8406 130.747 58.8921 130.716L75.126 123.275C75.2184 123.233 75.2883 123.153 75.3181 123.056C75.3443 122.955 75.3268 122.848 75.2701 122.76L55.1733 92.351C55.3247 92.068 55.4969 91.741 55.686 91.3821C55.8224 91.123 55.9677 90.8472 56.1202 90.5594C56.9919 89.047 57.7577 87.4758 58.4119 85.8573C58.7756 84.5367 58.4593 83.1216 57.5679 82.0819C55.585 79.4185 51.2143 77.4141 49.3343 77.4141C46.6104 77.4141 41.4507 86.2897 41.4507 90.8752C41.4507 95.3455 56.9128 127.453 58.3244 130.384C58.3607 130.459 58.3878 130.516 58.405 130.551ZM42.1643 90.8752C42.1643 86.3584 47.1867 78.1211 49.3343 78.1211C50.9124 78.1211 55.0773 79.9264 56.9916 82.528C57.7444 83.3883 58.0197 84.5671 57.7257 85.6719C57.0848 87.2471 56.3375 88.7768 55.4889 90.2505C55.0773 91.0193 54.6999 91.7264 54.4392 92.248C54.3781 92.3592 54.3781 92.4938 54.4392 92.605L74.4262 122.808L58.8853 129.934L58.839 129.837C56.9526 125.901 42.1643 95.0399 42.1643 90.8752Z" fill="#231F20"/>
<path id="Path_9" d="M141.07 99.2975L161.071 94.1972C160.385 93.2293 152.316 67.6045 143.808 63.4104C136.364 58.468 118.709 55.1731 103.114 56.292C103.114 56.292 98.9968 56.141 91.7787 59.0034C74.2 65.9914 70.8105 90.3257 70.8105 90.3257L84.5332 95.069C84.5332 95.069 81.9122 126.542 79.4352 142.996C79.4352 142.996 109.776 148.934 153.949 141.623C153.983 141.61 141.153 103.952 141.07 99.2975Z" fill="#E7816B"/>
<path id="Path_10" d="M139.424 64.1174C136.775 66.8631 134.71 70.158 131.787 72.7459C125.488 78.3198 117.248 82.7336 108.609 82.1982C98.4272 81.5667 89.6241 74.6062 87.4148 64.4674C86.0425 58.111 87.4696 52.2076 92.3823 47.7183C95.7787 44.6156 100.129 42.721 104.575 41.5403C116.383 38.3758 129.632 40.0576 139.712 46.9907C141.359 48.0048 142.749 49.3862 143.774 51.0269C146.292 55.5918 143.396 60.287 140.13 63.4241C139.911 63.6369 139.677 63.8771 139.424 64.1174Z" fill="#E7816B"/>
<path id="Path_11" d="M104.684 71.3114C104.582 71.3114 102.688 73.6178 102.592 73.6521C103.669 77.7159 104.808 83.0083 109.405 83.53C118.73 84.594 120.143 72.1557 121.9 66.2866C115.443 68.0988 110.887 68.8265 104.684 71.3114Z" fill="#231F20"/>
<path id="Shape_9" fill-rule="evenodd" clip-rule="evenodd" d="M109.371 83.8732C109.744 83.9159 110.12 83.9388 110.496 83.9418C117.81 83.935 119.985 75.2309 121.405 69.355C121.433 69.2475 121.459 69.1406 121.486 69.0345C121.73 68.0623 121.959 67.148 122.195 66.3621C122.227 66.2433 122.196 66.1161 122.112 66.0257C122.025 65.9371 121.896 65.903 121.776 65.9365C119.774 66.4989 117.971 66.9516 116.223 67.3906L116.218 67.3917C112.25 68.304 108.352 69.4992 104.554 70.9681C104.444 71.0161 104.431 71.023 103.367 72.2449C103.003 72.6705 102.503 73.2539 102.393 73.3569C102.276 73.4381 102.222 73.5827 102.256 73.7207L102.434 74.4072L102.445 74.4494C103.493 78.4168 104.797 83.3533 109.371 83.8732ZM103.072 74.2356L102.949 73.7619H102.969C103.12 73.5972 103.388 73.2951 103.868 72.6773C104.225 72.2586 104.705 71.7094 104.842 71.5722C108.603 70.1161 112.465 68.9369 116.397 68.0439C116.701 67.9661 117.008 67.8879 117.32 67.8087C118.605 67.4821 119.955 67.1387 121.385 66.7465C121.179 67.4878 120.973 68.3116 120.761 69.1696L120.756 69.1871C119.192 75.4596 117.055 84.0302 109.426 83.1593C105.311 82.7278 104.127 78.237 103.079 74.2622L103.072 74.2356Z" fill="#231F20"/>
<path id="Path_12" d="M113.714 23.4323C112.342 23.3774 111.464 23.9746 110.283 24.4002C107.985 25.2102 106.915 23.2882 104.939 22.2654C98.5238 18.9289 90.6473 20.5802 86.1111 26.2124C84.742 27.8346 83.8553 29.8086 83.5518 31.9099C83.2636 34.2849 83.9292 36.7149 83.5175 39.0626C83.0059 41.8036 81.1178 44.0869 78.5225 45.1032C80.7191 45.2729 82.9285 45.0639 85.0544 44.4854C83.8181 45.9555 82.0069 46.819 80.0868 46.8537C82.2749 48.5369 84.9635 49.4383 87.7235 49.4141L82.8863 50.5467C87.003 53.1895 92.0187 53.9789 96.8696 53.7593C106.53 53.2582 122.709 49.3043 122.428 36.7836C122.27 31.9854 119.635 23.7069 113.714 23.4323Z" fill="white"/>
<path id="Shape_10" fill-rule="evenodd" clip-rule="evenodd" d="M82.6734 50.8554C86.7764 53.4777 91.5107 54.1641 95.209 54.1641C95.7853 54.1641 96.3411 54.1504 96.9175 54.1092C99.8335 53.9582 107.299 53.2305 113.556 50.0935C119.814 46.9565 122.922 42.474 122.798 36.7834C122.702 31.4155 119.724 23.3566 113.783 23.0958C112.843 23.0898 111.917 23.3087 111.079 23.7342C111.036 23.7519 110.993 23.7698 110.95 23.7878C110.71 23.8881 110.463 23.9911 110.201 24.0843C108.76 24.5854 107.882 23.9195 106.77 23.0752C106.25 22.6592 105.694 22.2894 105.11 21.97C98.5521 18.5539 90.4961 20.2399 85.857 25.9994C84.4471 27.6732 83.5344 29.7089 83.2223 31.8754C83.1151 33.0169 83.1151 34.166 83.2223 35.3076C83.36 36.5448 83.3461 37.7942 83.1811 39.0281C82.6901 41.6559 80.8721 43.8411 78.3782 44.801C78.2251 44.8553 78.1327 45.0113 78.1586 45.1717C78.1803 45.33 78.3083 45.4524 78.4674 45.4669C80.2904 45.6107 82.1247 45.4952 83.9153 45.1237C82.8215 46.0122 81.4612 46.5078 80.0524 46.5309C79.9047 46.5309 79.7736 46.6254 79.7269 46.7656C79.6802 46.9057 79.7284 47.06 79.8465 47.1487C81.4941 48.4136 83.4254 49.2572 85.4728 49.6061L82.7832 50.2308C82.6517 50.2663 82.5511 50.3722 82.5224 50.5054C82.4992 50.6416 82.5584 50.7788 82.6734 50.8554ZM96.8283 53.4777C93.2672 53.6493 88.183 53.306 83.7506 50.7319L87.7851 49.7228C87.9556 49.6821 88.0681 49.5193 88.0458 49.3453C88.0279 49.1704 87.8784 49.0387 87.7027 49.0432C85.3339 49.0665 83.0111 48.3882 81.0267 47.0938C82.6933 46.8278 84.2084 45.97 85.2944 44.6775C85.3804 44.5562 85.3804 44.3938 85.2944 44.2725C85.2123 44.1446 85.056 44.086 84.9102 44.1283C83.2604 44.5817 81.5574 44.8126 79.8465 44.8148C81.924 43.5771 83.367 41.5031 83.8055 39.1242C83.9814 37.8361 83.9998 36.5314 83.8604 35.2389C83.7575 34.1453 83.7575 33.0445 83.8604 31.9509C84.1647 29.9245 85.0271 28.0229 86.351 26.4593C90.7822 20.9495 98.486 19.3374 104.753 22.6084C105.302 22.9073 105.823 23.2541 106.311 23.6449C107.484 24.5373 108.595 25.3816 110.372 24.757C110.656 24.6603 110.924 24.5477 111.186 24.4378C111.221 24.4229 111.257 24.408 111.292 24.3932C112.039 24.0152 112.863 23.8155 113.7 23.8097C119.203 24.0774 121.941 31.7449 122.057 36.8521C122.174 42.2612 119.196 46.524 113.192 49.5306C106.983 52.6471 99.6826 53.3266 96.8283 53.4777Z" fill="#231F20"/>
<path id="Path_13" d="M101.906 61.8316L102.592 73.6521C102.592 73.6521 107.992 79.8301 114.942 76.0341C121.893 72.238 121.625 66.218 121.625 66.218L117.062 44.0253C117.062 44.0253 110.757 42.5701 109.151 30.1455C103.772 34.4064 97.3437 37.136 90.5435 38.0464C90.5435 38.0464 90.667 51.9469 93.1164 57.4727C95.5659 62.9986 101.906 61.8316 101.906 61.8316Z" fill="white"/>
<path id="Shape_11" fill-rule="evenodd" clip-rule="evenodd" d="M102.331 73.8788C102.372 73.9337 105.659 77.6062 110.379 77.6062C112.031 77.5888 113.65 77.1518 115.086 76.3363C122.044 72.5382 121.952 66.458 121.948 66.1593C121.948 66.1546 121.948 66.1513 121.948 66.1495L117.378 43.9363C117.351 43.806 117.253 43.7023 117.124 43.6686C115.864 43.2394 114.748 42.4696 113.899 41.4445C112.328 39.7284 110.283 36.3717 109.474 30.0839C109.455 29.9596 109.371 29.8548 109.254 29.8093C109.135 29.7632 109 29.787 108.904 29.8711C103.565 34.0685 97.203 36.765 90.4747 37.6828C90.3057 37.7097 90.1809 37.8548 90.1797 38.026L90.1798 38.0391C90.1886 38.7752 90.3469 52.1346 92.7801 57.5896C94.9552 62.4976 100.115 62.3603 101.563 62.2162L102.249 73.6729C102.251 73.7491 102.28 73.8221 102.331 73.8788ZM114.784 75.7116C108.52 79.137 103.607 74.2358 102.921 73.4875L102.249 61.7769C102.241 61.6782 102.194 61.5867 102.118 61.5229C102.04 61.4648 101.94 61.4424 101.844 61.4611L101.843 61.4612C101.588 61.5039 95.7355 62.4797 93.4251 57.2807C91.2363 52.3314 90.8933 40.3462 90.8933 38.2869C97.4321 37.3183 103.623 34.7219 108.897 30.736C110.469 41.5818 115.628 43.8608 116.767 44.2383L121.289 66.2044C121.289 66.205 121.289 66.2063 121.289 66.2084C121.292 66.3877 121.38 72.1002 114.784 75.7116Z" fill="#231F20"/>
<path id="Path_14" d="M114.489 50.2445C116.101 50.4874 117.744 50.0827 119.059 49.1187C120.865 47.6881 121.795 45.4201 121.515 43.1329C121.473 42.2923 121.238 41.4727 120.829 40.7373C120.424 39.993 119.715 39.4619 118.888 39.282C117.874 39.219 116.868 39.4863 116.019 40.044C114.688 40.7304 114.647 41.4923 113.92 42.6181C114.002 42.5151 114.064 42.2268 114.146 42.1239" fill="white"/>
<path id="Path_15" d="M115.409 50.6633C115.083 50.662 114.757 50.6368 114.435 50.5878C114.246 50.5562 114.118 50.3788 114.146 50.1896C114.16 50.0999 114.209 50.0193 114.283 49.9663C114.356 49.9133 114.448 49.8924 114.538 49.9082C116.058 50.132 117.604 49.7445 118.84 48.8305C120.549 47.4696 121.426 45.3152 121.152 43.1467C121.124 42.3592 120.915 41.5886 120.541 40.8952C120.183 40.2452 119.564 39.7802 118.84 39.6184C117.989 39.4674 117.138 39.8587 116.191 40.3461C115.54 40.6627 115.031 41.2111 114.764 41.8837C114.62 42.1445 114.462 42.4397 114.249 42.7623C114.235 42.7902 114.217 42.8157 114.194 42.8378C114.08 42.9798 113.873 43.0042 113.728 42.8928C113.577 42.7862 113.54 42.5778 113.646 42.426C113.646 42.426 113.646 42.3367 113.694 42.2887C113.734 42.1644 113.792 42.0465 113.865 41.9386C113.901 41.897 113.945 41.8641 113.995 41.8425L114.126 41.5954C114.465 40.7991 115.078 40.1511 115.855 39.7694C116.665 39.3507 117.783 38.7741 118.929 38.9732C119.872 39.1604 120.685 39.7528 121.152 40.5932C121.573 41.3783 121.807 42.2496 121.838 43.1399C122.133 45.5435 121.149 47.9262 119.244 49.4208C118.13 50.2322 116.787 50.6674 115.409 50.6633Z" fill="#231F20"/>
<path id="Path_16" d="M102.263 68.0509C105.006 67.8535 107.474 66.3116 108.856 63.9323C111.278 59.8892 110.311 57.3013 110.311 57.3013C110.311 57.3013 107.045 61.468 101.906 61.8043L102.263 68.0509Z" fill="#231F20"/>
<path id="Shape_12" fill-rule="evenodd" clip-rule="evenodd" d="M101.926 68.0646C101.934 68.245 102.082 68.3874 102.263 68.3873L102.283 68.4216C105.135 68.2385 107.709 66.6449 109.144 64.1725C111.628 60.0333 110.674 57.3562 110.633 57.2463C110.589 57.131 110.487 57.0475 110.366 57.0267C110.243 57.0084 110.119 57.0583 110.043 57.1571C110.043 57.1576 110.042 57.1588 110.04 57.1606C109.927 57.2995 106.742 61.2111 101.885 61.5229C101.794 61.5282 101.709 61.5695 101.648 61.6378C101.588 61.7061 101.557 61.7956 101.563 61.8867L101.926 68.0646ZM102.585 67.6802L102.263 62.1407C105.274 61.7486 108.051 60.3073 110.105 58.0701C110.229 59.0311 110.187 61.0355 108.547 63.7813C107.27 65.9343 105.069 67.3741 102.585 67.6802Z" fill="#231F20"/>
<path id="Path_17" d="M101 43.0439C101 43.0439 98.427 49.826 99.5934 50.636C100.76 51.446 103.223 50.1555 103.223 50.1555" fill="white"/>
<path id="Path_18" d="M100.609 51.2466C100.18 51.2663 99.7551 51.1511 99.3945 50.9171C98.1046 50.0248 100.081 44.5744 100.671 42.9201C100.738 42.7447 100.934 42.656 101.11 42.721C101.196 42.7533 101.265 42.8187 101.303 42.9025C101.34 42.9864 101.342 43.0817 101.309 43.1672C100.115 46.318 99.2505 49.963 99.7856 50.3474C100.602 50.9103 102.427 50.1826 103.058 49.8532C103.227 49.7668 103.434 49.8307 103.525 49.9973C103.61 50.1661 103.542 50.3716 103.374 50.4572C102.519 50.9152 101.577 51.1843 100.609 51.2466Z" fill="#231F20"/>
<ellipse id="Oval_2" cx="105.628" cy="41.533" rx="0.994933" ry="1.40714" transform="rotate(-17.91 105.628 41.533)" fill="#231F20"/>
<ellipse id="Oval_3" cx="96.4427" cy="43.7109" rx="0.994891" ry="1.4072" transform="rotate(-0.78 96.4427 43.7109)" fill="#231F20"/>
<path id="Shape_13" fill-rule="evenodd" clip-rule="evenodd" d="M99.9643 58.8046C100.51 59.1745 101.158 59.3641 101.817 59.3469C102.237 59.3453 102.655 59.2852 103.059 59.1684C104.703 58.6554 106.021 57.4154 106.633 55.8049C107.136 54.5082 107.327 53.1114 107.189 51.7274C107.176 51.6291 107.124 51.5401 107.045 51.4803C106.887 51.3636 106.791 51.295 97.9127 53.2376C97.7494 53.2736 97.6344 53.4203 97.6383 53.5877L97.6383 53.5878C97.6452 53.7407 97.8036 57.2263 99.9643 58.8046ZM100.355 58.2417C98.8047 57.116 98.4342 54.686 98.3519 53.8554V53.8485C101.179 53.2307 105.344 52.3383 106.524 52.1255C106.605 53.2941 106.427 54.4662 106.002 55.5577C105.458 56.975 104.295 58.065 102.846 58.5163C102.016 58.8015 101.103 58.7008 100.355 58.2417Z" fill="#231F20"/>
<path id="Path_19" d="M106.318 55.6949C105 58.88 101.7 59.642 100.143 58.5368C100.493 57.3218 101.131 56.0587 102.318 55.5988C103.62 55.1543 105.038 55.1884 106.318 55.6949Z" fill="#231F20"/>
<path id="Shape_14" fill-rule="evenodd" clip-rule="evenodd" d="M99.964 58.8042C100.511 59.1708 101.158 59.358 101.817 59.3397C102.236 59.34 102.654 59.2822 103.058 59.168C104.7 58.6547 106.017 57.4181 106.633 55.8114C106.667 55.7254 106.667 55.6296 106.633 55.5436C106.595 55.4576 106.523 55.3907 106.434 55.3583C105.082 54.8336 103.588 54.8021 102.215 55.2691C101.11 55.6878 100.307 56.7586 99.8405 58.4336C99.7984 58.5708 99.848 58.7197 99.964 58.8042ZM102.846 58.5091C102.097 58.7581 101.281 58.709 100.568 58.3718C101 57.0675 101.618 56.2301 102.462 55.8869C103.562 55.5209 104.751 55.5209 105.851 55.8869C105.268 57.1488 104.175 58.1024 102.846 58.5091Z" fill="#231F20"/>
<path id="Shape_15" fill-rule="evenodd" clip-rule="evenodd" d="M88.2105 46.9017C88.4169 47.8473 89.2535 48.5214 90.2209 48.5217C90.3697 48.5138 90.5171 48.4884 90.66 48.4462L98.3104 46.7713C99.3995 46.5156 100.085 45.4364 99.8542 44.3413L99.1681 41.067C99.0515 40.5322 98.727 40.0658 98.2661 39.7708C97.8052 39.4759 97.2459 39.3767 96.7117 39.495L89.0613 41.1768C87.9513 41.4198 87.2479 42.5167 87.4901 43.6274L88.2105 46.9017ZM96.8627 40.1609C96.9607 40.1507 97.0596 40.1507 97.1577 40.1609L97.1851 40.1403C97.8167 40.1494 98.3605 40.5886 98.5025 41.2043L99.1886 44.4786C99.3343 45.204 98.8791 45.9144 98.1594 46.0849L90.5091 47.801C89.784 47.9467 89.0739 47.4913 88.9035 46.7713L88.1831 43.4489C88.0337 42.7191 88.4935 42.0032 89.2191 41.8358L96.8627 40.1609Z" fill="#231F20"/>
<path id="Shape_16" fill-rule="evenodd" clip-rule="evenodd" d="M102.743 45.2059C103.074 45.42 103.46 45.5344 103.854 45.5354C104.016 45.5347 104.176 45.5186 104.335 45.4874L111.978 43.8124C113.078 43.5538 113.763 42.4573 113.515 41.355L112.829 38.0807C112.712 37.5459 112.388 37.0795 111.927 36.7845C111.466 36.4896 110.907 36.3903 110.373 36.5087L102.729 38.1836C102.193 38.3008 101.727 38.627 101.432 39.0897C101.139 39.55 101.04 40.108 101.158 40.6411L101.844 43.9154C101.961 44.4476 102.284 44.9117 102.743 45.2059ZM110.496 37.1952C110.593 37.1736 110.692 37.1621 110.791 37.1608C111.435 37.1579 111.994 37.6033 112.136 38.2317L112.822 41.506C112.899 41.8571 112.835 42.2244 112.644 42.5288C112.448 42.8292 112.143 43.041 111.793 43.1191L104.142 44.794C103.417 44.9397 102.707 44.4844 102.537 43.7644L101.816 40.4901C101.742 40.138 101.808 39.7707 102.002 39.4673C102.194 39.1637 102.501 38.9508 102.853 38.8769L110.496 37.1952Z" fill="#231F20"/>
<path id="Path_20" d="M98.8185 41.4995C98.7557 41.5008 98.6938 41.4842 98.6401 41.4514C98.4737 41.353 98.4159 41.14 98.5097 40.9709C98.8322 40.4149 99.882 39.5431 101.604 40.2364C101.794 40.3085 101.889 40.5205 101.817 40.7101C101.745 40.8996 101.533 40.9949 101.343 40.9229C99.8065 40.3051 99.189 41.2455 99.1273 41.3553C99.0546 41.4516 98.9389 41.5056 98.8185 41.4995Z" fill="#231F20"/>
<path id="Path_21" d="M30.466 132.878H171.535L194.17 174.236H7.83057L30.466 132.878Z" fill="white"/>
<path id="Shape_17" fill-rule="evenodd" clip-rule="evenodd" d="M7.83019 174.58H194.17C194.292 174.581 194.407 174.519 194.472 174.415C194.53 174.308 194.53 174.179 194.472 174.072L171.829 132.714C171.77 132.602 171.654 132.533 171.527 132.535H30.4794C30.3533 132.533 30.2367 132.602 30.1775 132.714L7.53515 174.072C7.47656 174.179 7.47656 174.308 7.53515 174.415C7.59872 174.517 7.7101 174.579 7.83019 174.58ZM193.587 173.893H8.4134L30.6715 133.222H171.328L193.587 173.893Z" fill="#D1D3D4"/>
<path id="Path_22" d="M32.6548 106.196L32.9567 104.892C33.6428 103.588 34.4044 102.709 36.1746 102.709H103.326C104.994 102.712 106.46 103.813 106.929 105.414L117.845 142.934C118.43 144.604 117.615 146.441 115.985 147.129L114.798 147.41L32.6548 106.196Z" fill="white"/>
<path id="Shape_18" fill-rule="evenodd" clip-rule="evenodd" d="M114.647 147.719C114.695 147.74 114.746 147.752 114.798 147.753L114.867 147.781L116.095 147.486C117.889 146.731 118.79 144.713 118.153 142.873L107.23 105.304C106.715 103.559 105.117 102.359 103.299 102.352H36.1469C34.1023 102.352 33.3132 103.471 32.6271 104.713C32.6241 104.743 32.6241 104.773 32.6271 104.803L32.3252 106.107C32.2863 106.261 32.3607 106.421 32.5036 106.491L114.647 147.719ZM114.867 147.046L33.0731 106.011L33.2789 105.015C34.0062 103.739 34.658 103.052 36.1744 103.052H103.347C104.86 103.06 106.19 104.058 106.619 105.51L117.536 143.031C117.927 144.39 117.584 146.154 115.93 146.799L114.867 147.046Z" fill="#231F20"/>
<path id="Path_23" d="M114.798 147.41H46.2743C45.3183 147.4 44.4821 146.764 44.2159 145.845L32.6821 106.196C32.5938 105.888 32.6553 105.556 32.8481 105.3C33.0409 105.044 33.3426 104.893 33.6632 104.892H104.019L115.937 145.893C116.044 146.252 115.974 146.64 115.75 146.939C115.525 147.238 115.172 147.413 114.798 147.41Z" fill="#231F20"/>
<path id="Shape_19" fill-rule="evenodd" clip-rule="evenodd" d="M46.2745 147.753H114.798C115.279 147.753 115.732 147.526 116.021 147.142C116.309 146.757 116.4 146.259 116.267 145.797L104.342 104.796C104.301 104.652 104.169 104.553 104.019 104.556H33.636C33.21 104.56 32.8101 104.761 32.5534 105.101C32.2968 105.441 32.2126 105.882 32.3255 106.292L43.8593 145.941C44.177 147.012 45.1581 147.748 46.2745 147.753ZM33.0988 105.508C33.2262 105.339 33.4244 105.239 33.636 105.235H103.745L115.615 145.989C115.69 146.243 115.642 146.518 115.485 146.731C115.321 146.944 115.067 147.069 114.798 147.067H46.2745C45.4605 147.065 44.7441 146.529 44.5111 145.749L32.9841 106.1C32.9291 105.896 32.9714 105.677 33.0988 105.508Z" fill="#231F20"/>
<path id="Path_24" d="M103.306 130.517L99.1408 148.234C98.6869 150.187 96.9456 151.567 94.9417 151.563H51.5987C50.2807 151.563 49.0352 150.96 48.2171 149.926C47.399 148.892 47.0979 147.541 47.3996 146.257L51.0704 130.517H47.4819L43.969 145.447C43.4318 147.776 43.985 150.223 45.4717 152.094C46.9585 153.965 49.2165 155.056 51.6056 155.057H94.976C98.5935 155.055 101.737 152.571 102.578 149.051L106.928 130.517L103.306 130.517Z" fill="white"/>
<path id="Shape_20" fill-rule="evenodd" clip-rule="evenodd" d="M51.5988 155.449H94.9417C98.7526 155.474 102.072 152.854 102.935 149.14L107.292 130.606C107.312 130.505 107.287 130.399 107.222 130.318C107.157 130.237 107.059 130.19 106.956 130.188H103.333C103.176 130.187 103.039 130.295 103.004 130.448L98.8389 148.165C98.4204 149.965 96.8158 151.237 94.9692 151.234H51.5988C50.385 151.232 49.2384 150.676 48.4847 149.725C47.731 148.773 47.4528 147.529 47.729 146.346L51.4273 130.606C51.4521 130.506 51.4293 130.399 51.3655 130.318C51.3002 130.237 51.2021 130.189 51.0979 130.188H47.4751C47.3162 130.186 47.1771 130.294 47.1389 130.448L43.6328 145.385C43.0607 147.82 43.6321 150.383 45.1842 152.344C46.7363 154.304 49.0988 155.448 51.5988 155.449ZM44.2846 145.543L47.7153 130.874H50.6588L47.0635 146.188C46.7363 147.575 47.061 149.035 47.9448 150.152C48.8287 151.269 50.1747 151.921 51.5988 151.92H94.9554C97.1221 151.93 99.0061 150.436 99.4908 148.323L103.608 130.874H106.524L102.27 148.975C101.482 152.371 98.4536 154.772 94.9692 154.762H51.5988C49.3048 154.769 47.1342 153.724 45.708 151.926C44.2818 150.129 43.7573 147.777 44.2846 145.543Z" fill="#231F20"/>
<path id="Path_25" d="M159.198 94.3896C159.198 94.3896 165.332 121.641 160.31 128.602C155.287 135.562 120.212 134.464 120.212 134.464C120.212 134.464 114.524 141.294 109.584 140.841C104.644 140.388 107.526 131.039 113.337 127.147L112.534 123.9L143.458 118.937L139.341 99.3526" fill="white"/>
<path id="Path_26" d="M110.036 141.205C109.867 141.205 109.696 141.205 109.522 141.205C108.207 141.139 107.102 140.194 106.832 138.905C106.057 135.864 108.541 130.064 112.911 127.016L112.17 124.002C112.146 123.911 112.161 123.814 112.211 123.735C112.264 123.653 112.349 123.598 112.445 123.584L143.012 118.676L138.964 99.4553C138.945 99.3661 138.963 99.2733 139.014 99.1974C139.064 99.1214 139.142 99.0685 139.231 99.0503C139.32 99.03 139.412 99.0462 139.489 99.0953C139.565 99.1444 139.618 99.2223 139.636 99.3112L143.753 118.895C143.773 118.988 143.753 119.086 143.698 119.163C143.646 119.24 143.564 119.293 143.472 119.307L112.918 124.215L113.604 127.098C113.64 127.236 113.585 127.382 113.467 127.462C109.268 130.276 106.75 135.94 107.47 138.754C107.661 139.753 108.513 140.489 109.529 140.532C114.229 140.971 119.821 134.354 119.862 134.278C119.929 134.197 120.031 134.152 120.136 134.155C120.486 134.155 155.129 135.164 159.973 128.43C164.817 121.696 158.875 94.7944 158.813 94.4992C158.786 94.3766 158.827 94.2489 158.92 94.1642C159.012 94.0795 159.143 94.0508 159.263 94.0887C159.382 94.1267 159.473 94.2256 159.5 94.3482C159.753 95.4671 165.606 121.806 160.549 128.835C155.609 135.699 123.231 134.931 120.301 134.841C119.526 135.747 114.633 141.205 110.036 141.205Z" fill="#231F20"/>
<path id="Path_27" d="M122.401 80.8939C122.348 80.8931 122.296 80.8789 122.25 80.8527C122.165 80.8141 122.099 80.7425 122.068 80.6544C122.037 80.5663 122.043 80.4694 122.085 80.3859C127.066 70.0893 139.856 63.1631 139.986 63.0945C140.068 63.0489 140.164 63.0384 140.254 63.0657C140.343 63.0929 140.417 63.1553 140.46 63.2386C140.505 63.3212 140.516 63.4188 140.489 63.5093C140.462 63.5998 140.399 63.6755 140.315 63.7191C140.192 63.7878 127.601 70.5836 122.723 80.6948C122.661 80.8164 122.537 80.8932 122.401 80.8939Z" fill="#231F20"/>
<path id="Path_28" d="M101.254 80.4067C101.204 80.4171 101.153 80.4171 101.103 80.4067C89.1509 74.9152 87.7031 62.8476 87.6894 62.7309C87.6694 62.5359 87.8103 62.3612 88.005 62.3396C88.0979 62.328 88.1916 62.3542 88.2651 62.4122C88.3386 62.4703 88.3858 62.5554 88.3961 62.6485C88.3961 62.7652 89.8233 74.4416 101.433 79.6997C101.609 79.7807 101.688 79.9882 101.611 80.1665C101.557 80.3159 101.413 80.4131 101.254 80.4067Z" fill="#231F20"/>
<path id="Path_29" d="M46.7959 95.9684C46.6427 95.9246 46.5371 95.7846 46.5371 95.6252C46.5371 95.4658 46.6427 95.3258 46.7959 95.282C51.9693 95.1241 54.4806 92.1999 54.508 92.1724C54.567 92.1003 54.6523 92.0546 54.745 92.0456C54.8378 92.0366 54.9303 92.0649 55.002 92.1244C55.1531 92.2497 55.1745 92.4736 55.0501 92.6255C54.9403 92.7559 52.3055 95.8243 46.8165 95.989L46.7959 95.9684Z" fill="#231F20"/>
<path id="Path_30" d="M139.3 99.7025C139.138 99.7039 138.995 99.5929 138.957 99.4348C138.957 99.3112 135.725 86.6601 135.279 79.075C135.274 78.9821 135.305 78.8908 135.367 78.8212C135.429 78.7517 135.516 78.7096 135.609 78.7043C135.803 78.6925 135.972 78.8392 135.986 79.0338C136.432 86.5503 139.616 99.1328 139.643 99.2632C139.691 99.4525 139.578 99.6453 139.389 99.6956L139.3 99.7025Z" fill="#231F20"/>
<path id="Path_31" d="M83.9979 101.961C83.9038 101.956 83.8158 101.913 83.7538 101.841C83.6918 101.77 83.6611 101.677 83.6686 101.583L85.3702 74.9151C85.3755 74.8209 85.4185 74.7328 85.4895 74.6708C85.5605 74.6088 85.6536 74.5781 85.7476 74.5856C85.8411 74.589 85.9292 74.6306 85.9914 74.7006C86.0536 74.7706 86.0845 74.8629 86.0769 74.9563L84.3479 101.624C84.3405 101.812 84.186 101.961 83.9979 101.961Z" fill="#231F20"/>
<path id="Path_32" d="M144.748 87.0446C144.618 87.0461 144.499 86.9744 144.439 86.8592L141.118 80.6813C141.081 80.5911 141.081 80.49 141.118 80.3998C141.15 80.3076 141.216 80.2313 141.303 80.187L151.595 75.3202C151.68 75.2779 151.778 75.2716 151.867 75.3026C151.956 75.3337 152.029 75.3994 152.069 75.4849C152.153 75.6613 152.079 75.8723 151.904 75.9586L141.928 80.6675L144.933 86.2414L155.04 83.1524C155.162 83.1157 155.295 83.1471 155.388 83.2349C155.481 83.3227 155.521 83.4535 155.491 83.5781C155.462 83.7027 155.368 83.8021 155.246 83.8389L144.851 87.0514L144.748 87.0446Z" fill="#231F20"/>
<ellipse id="Oval_4" cx="153.661" cy="160.274" rx="16.9406" ry="5.10025" fill="white"/>
<path id="Shape_21" fill-rule="evenodd" clip-rule="evenodd" d="M136.377 160.274C136.377 163.329 143.972 165.718 153.661 165.718C163.349 165.718 170.944 163.329 170.944 160.274C170.944 157.219 163.349 154.831 153.661 154.831C143.972 154.831 136.377 157.219 136.377 160.274ZM137.063 160.274C137.063 157.974 143.732 155.517 153.661 155.517C163.589 155.517 170.258 157.974 170.258 160.274C170.258 162.574 163.589 165.031 153.661 165.031C143.732 165.031 137.063 162.574 137.063 160.274Z" fill="#D1D3D4"/>
<path id="Path_33" d="M140.892 145.708L140.487 145.784C139.263 145.966 138.149 146.594 137.358 147.548C136.454 148.929 136.414 150.705 137.255 152.126C139.053 155.366 143.43 156.245 146.806 156.581C147.284 156.659 147.773 156.621 148.233 156.471C148.699 156.312 149.014 155.879 149.022 155.387C148.963 154.986 148.705 154.642 148.336 154.474C147.983 154.31 147.605 154.203 147.218 154.158C145.118 153.815 142.909 153.561 140.988 152.593C139.869 152.023 138.305 150.726 139.122 149.326C139.407 148.882 139.818 148.533 140.302 148.323C142.23 147.404 144.062 148.104 145.962 148.667C146.1 148.717 146.248 148.738 146.395 148.728C146.771 148.625 147.01 148.256 146.95 147.87C146.889 147.04 146.058 146.497 145.276 146.189C143.879 145.658 142.37 145.492 140.892 145.708Z" fill="white"/>
<path id="Shape_22" fill-rule="evenodd" clip-rule="evenodd" d="M146.779 156.924C146.977 156.946 147.176 156.958 147.376 156.958C147.71 156.964 148.042 156.908 148.357 156.794C148.946 156.657 149.375 156.15 149.415 155.546C149.454 154.943 149.094 154.384 148.528 154.172C148.141 153.987 147.726 153.868 147.3 153.821L146.525 153.698C144.677 153.502 142.87 153.026 141.166 152.284C140.348 151.922 139.69 151.276 139.314 150.465C139.216 150.141 139.263 149.79 139.444 149.504C139.694 149.116 140.055 148.812 140.48 148.632C142.12 147.849 143.712 148.33 145.4 148.845L145.894 148.996C146.079 149.059 146.275 149.084 146.47 149.071C147.025 148.939 147.392 148.409 147.321 147.843C147.231 146.724 146.113 146.126 145.427 145.872C143.968 145.313 142.389 145.141 140.844 145.371L140.418 145.447C139.112 145.648 137.925 146.322 137.084 147.341C136.096 148.83 136.045 150.752 136.953 152.291C138.415 154.927 141.626 156.437 146.779 156.924ZM140.555 146.12L140.947 146.051V146.065C142.374 145.851 143.832 146.009 145.18 146.525C145.599 146.676 146.58 147.129 146.635 147.897C146.648 148.103 146.545 148.385 146.381 148.385C146.282 148.387 146.185 148.371 146.093 148.337L145.599 148.186C143.863 147.657 142.065 147.115 140.185 148.014C139.636 148.25 139.172 148.647 138.854 149.154C138.575 149.606 138.503 150.155 138.655 150.664C139.083 151.658 139.869 152.454 140.857 152.895C142.622 153.673 144.497 154.173 146.415 154.377L147.19 154.501C147.539 154.537 147.88 154.63 148.199 154.776C148.454 154.893 148.634 155.13 148.679 155.407C148.656 155.75 148.428 156.045 148.103 156.155C147.694 156.279 147.262 156.307 146.84 156.238C141.935 155.778 138.895 154.377 137.557 151.961C136.777 150.657 136.807 149.022 137.633 147.746C138.377 146.867 139.416 146.289 140.555 146.12Z" fill="#231F20"/>
<path id="Path_34" d="M142.477 142.234C142.477 142.234 145.646 158.064 145.907 159.018C146.168 159.972 153.661 163.892 159.63 160.041L164.851 143.861L142.477 142.234Z" fill="white"/>
<path id="Shape_23" fill-rule="evenodd" clip-rule="evenodd" d="M148.549 161.05C150.222 161.698 151.998 162.037 153.791 162.052C155.919 162.089 158.01 161.502 159.808 160.363C159.876 160.323 159.927 160.259 159.953 160.185L165.174 144.005C165.209 143.905 165.194 143.795 165.135 143.707C165.075 143.619 164.978 143.564 164.872 143.559L142.497 141.898C142.391 141.886 142.285 141.927 142.214 142.008C142.143 142.088 142.115 142.199 142.141 142.303C142.271 142.955 145.317 158.153 145.571 159.107C145.736 159.718 147.232 160.542 148.549 161.05ZM146.237 158.929C146.01 158.084 143.417 145.186 142.902 142.612L164.412 144.177L159.363 159.821C155.753 162.073 151.815 161.366 149.757 160.741C147.568 160.075 146.333 159.155 146.237 158.929Z" fill="#231F20"/>
<ellipse id="Oval_5" cx="153.697" cy="142.697" rx="4.86" ry="11.2183" transform="rotate(-87.65 153.697 142.697)" fill="#231F20"/>
<path id="Shape_24" fill-rule="evenodd" clip-rule="evenodd" d="M153.475 147.918H154.566C156.956 147.97 159.336 147.591 161.592 146.799C163.863 145.948 165.181 144.644 165.236 143.202C165.359 140.278 160.378 137.8 153.901 137.532C147.424 137.264 142.257 139.324 142.134 142.248C142.01 145.172 146.991 147.657 153.475 147.918ZM142.813 142.282C142.909 139.948 147.403 138.164 152.844 138.164L153.901 138.184C159.781 138.425 164.687 140.697 164.584 143.147C164.536 144.28 163.369 145.371 161.38 146.133C158.853 147.019 156.176 147.394 153.503 147.238C147.616 146.998 142.717 144.726 142.813 142.282Z" fill="#231F20"/>
<path id="Shape_25" fill-rule="evenodd" clip-rule="evenodd" d="M90.5437 98.2543H126.847C127.029 98.2547 127.179 98.1132 127.19 97.9317V87.1889C127.19 86.9994 127.036 86.8457 126.847 86.8457H90.5437C90.3558 86.8494 90.2043 87.0009 90.2007 87.1889V97.9111C90.2007 98.1007 90.3543 98.2543 90.5437 98.2543ZM126.504 97.5679H90.8868V87.5321H126.504V97.5679Z" fill="white"/>
<rect id="Rectangle" x="7.83057" y="174.236" width="186.333" height="7.18703" fill="white"/>
<path id="Shape_26" fill-rule="evenodd" clip-rule="evenodd" d="M7.83037 181.767H194.17C194.359 181.767 194.513 181.613 194.513 181.423V174.236C194.509 174.048 194.358 173.897 194.17 173.893H7.83037C7.64243 173.897 7.49095 174.048 7.4873 174.236V181.423C7.4873 181.613 7.6409 181.767 7.83037 181.767ZM193.827 181.08H8.17344V174.58H193.827V181.08Z" fill="#D1D3D4"/>
<path id="Path_35" d="M164.845 107.116C164.657 107.109 164.508 106.954 164.508 106.766C164.508 105.976 165.009 87.367 167.061 80.9213C169.112 74.4756 172.961 71.7917 173.119 71.6887C173.277 71.5825 173.49 71.624 173.596 71.7814C173.702 71.9387 173.661 72.1523 173.503 72.2584C173.462 72.2584 169.709 74.8601 167.713 81.1273C165.716 87.3945 165.201 106.587 165.194 106.78C165.193 106.871 165.155 106.957 165.089 107.02C165.023 107.083 164.935 107.118 164.845 107.116Z" fill="white"/>
</g>
</g>
</g>
<defs>
<linearGradient id="paint0_linear_1_10197" x1="0" y1="202" x2="202" y2="202" gradientUnits="userSpaceOnUse">
<stop stop-color="#5D0202" stop-opacity="0.01"/>
<stop offset="1" stop-color="#5D0202" stop-opacity="0.497569"/>
</linearGradient>
</defs>
</svg>
